<svg width="40" height="40" viewBox="0 0 40 40" fill="none" xmlns="http://www.w3.org/2000/svg">
<g id="fluent:backpack-28-regular">
<path id="Vector" d="M12.6205 17.1778C12.6205 16.5793 12.7384 15.9867 12.9674 15.4338C13.1964 14.8808 13.5321 14.3784 13.9553 13.9553C14.81 13.1006 15.9692 12.6204 17.1779 12.6204H22.0858C22.6843 12.6204 23.2769 12.7383 23.8298 12.9673C24.3828 13.1964 24.8852 13.5321 25.3084 13.9553C25.7316 14.3784 26.0672 14.8808 26.2963 15.4338C26.5253 15.9867 26.6432 16.5793 26.6432 17.1778C26.6432 17.8286 26.3846 18.4528 25.9244 18.913C25.4642 19.3732 24.84 19.6318 24.1892 19.6318H15.0745C14.4236 19.6318 13.7994 19.3732 13.3392 18.913C12.879 18.4528 12.6205 17.8286 12.6205 17.1778ZM17.1779 14.7238C16.527 14.7238 15.9028 14.9824 15.4426 15.4426C14.9824 15.9028 14.7239 16.527 14.7239 17.1778C14.7239 17.3713 14.8809 17.5284 15.0745 17.5284H24.1892C24.2822 17.5284 24.3714 17.4914 24.4371 17.4257C24.5028 17.36 24.5398 17.2708 24.5398 17.1778C24.5398 16.527 24.2812 15.9028 23.821 15.4426C23.3608 14.9824 22.7366 14.7238 22.0858 14.7238H17.1779ZM19.6318 2.80453C17.9671 2.80457 16.3568 3.39679 15.0887 4.47528C13.8206 5.55377 12.9775 7.04818 12.7102 8.69127C10.5598 9.8695 8.76589 11.6045 7.51653 13.7144C6.26717 15.8243 5.60835 18.2314 5.60913 20.6835V31.2005C5.60913 32.5952 6.16315 33.9327 7.14931 34.9188C8.13548 35.905 9.473 36.459 10.8676 36.459H28.396C29.7907 36.459 31.1282 35.905 32.1144 34.9188C33.1005 33.9327 33.6545 32.5952 33.6545 31.2005V20.6835C33.6553 18.2314 32.9965 15.8243 31.7471 13.7144C30.4978 11.6045 28.7039 9.8695 26.5534 8.69127C26.2861 7.04818 25.4431 5.55377 24.175 4.47528C22.9069 3.39679 21.2965 2.80457 19.6318 2.80453ZM19.2813 7.01135C17.8748 7.01135 16.5188 7.22309 15.2427 7.61713C15.6505 6.80225 16.277 6.11698 17.0522 5.63806C17.8274 5.15914 18.7206 4.90547 19.6318 4.90547C20.543 4.90547 21.4362 5.15914 22.2114 5.63806C22.9866 6.11698 23.6132 6.80225 24.0209 7.61713C22.7127 7.21412 21.3513 7.00991 19.9824 7.01135H19.2813ZM19.2813 9.11475H19.9824C21.5016 9.11475 23.006 9.41399 24.4096 9.99537C25.8131 10.5768 27.0885 11.4289 28.1627 12.5032C29.237 13.5774 30.0891 14.8527 30.6705 16.2563C31.2519 17.6599 31.5511 19.1643 31.5511 20.6835V22.4363H7.71254V20.6835C7.71254 17.6153 8.93138 14.6727 11.1009 12.5032C13.2705 10.3336 16.213 9.11475 19.2813 9.11475ZM12.6205 24.5397V26.9937C12.6205 27.2726 12.7313 27.5401 12.9285 27.7374C13.1258 27.9346 13.3933 28.0454 13.6722 28.0454C13.9511 28.0454 14.2186 27.9346 14.4158 27.7374C14.6131 27.5401 14.7239 27.2726 14.7239 26.9937V24.5397H31.5511V31.2005C31.5511 32.0373 31.2187 32.8398 30.627 33.4315C30.0353 34.0232 29.2328 34.3556 28.396 34.3556H10.8676C10.0309 34.3556 9.22834 34.0232 8.63665 33.4315C8.04495 32.8398 7.71254 32.0373 7.71254 31.2005V24.5397H12.6205Z" fill="#343434"/>
</g>
</svg>
