<svg width="36" height="36" viewBox="0 0 36 36" fill="none" xmlns="http://www.w3.org/2000/svg">
<g id="iconamoon:search-bold">
<path id="Vector" d="M30.9715 31.4554L24.6469 25.1308M24.6469 25.1308C25.7287 24.0489 26.5869 22.7646 27.1724 21.351C27.7579 19.9375 28.0592 18.4225 28.0592 16.8926C28.0592 15.3626 27.7579 13.8476 27.1724 12.4341C26.5869 11.0206 25.7287 9.73621 24.6469 8.65435C23.565 7.57249 22.2806 6.71432 20.8671 6.12882C19.4536 5.54333 17.9386 5.24197 16.4086 5.24197C14.8787 5.24197 13.3637 5.54333 11.9502 6.12882C10.5366 6.71432 9.25229 7.57249 8.17043 8.65435C5.98553 10.8393 4.75806 13.8026 4.75806 16.8926C4.75806 19.9825 5.98553 22.9459 8.17043 25.1308C10.3553 27.3157 13.3187 28.5431 16.4086 28.5431C19.4986 28.5431 22.4619 27.3157 24.6469 25.1308Z" stroke="#878787" stroke-width="2.79607" stroke-linecap="round" stroke-linejoin="round"/>
</g>
</svg>
